<?xml version="1.0" encoding="UTF-8"?>
<svg version="1.1" xmlns="http://www.w3.org/2000/svg" width="4000" height="4000">
<path d="M0 0 C1320 0 2640 0 4000 0 C4000 1320 4000 2640 4000 4000 C2680 4000 1360 4000 0 4000 C0 2680 0 1360 0 0 Z " fill="#FEFEFE" transform="translate(0,0)"/>
<path d="M0 0 C4.51135907 4.14512328 7.74459741 8.78634764 11.125 13.875 C15.12509732 19.8115222 19.16608318 25.69271472 23.4375 31.4375 C28.30802641 37.99913179 32.99655381 44.67811874 37.66552734 51.38427734 C41.57304241 56.98728545 45.54295989 62.53943527 49.5625 68.0625 C53.98099973 74.13910764 58.27970383 80.28418264 62.5 86.5 C67.28246627 93.54349086 72.18837105 100.48184696 77.19311523 107.36889648 C80.85399749 112.40736989 84.47591801 117.47086588 88.0625 122.5625 C88.80040771 123.60990356 88.80040771 123.60990356 89.55322266 124.6784668 C91.52988898 127.48626837 93.5046567 130.29540277 95.47949219 133.10449219 C96.96459128 135.21613276 98.45067909 137.32707143 99.9375 139.4375 C100.43072754 140.13770264 100.92395508 140.83790527 101.43212891 141.55932617 C105.05856796 146.69550721 108.7413521 151.7888525 112.4375 156.875 C116.9409242 163.07537641 121.32106705 169.34714668 125.625 175.6875 C129.93328449 182.0337122 134.34336733 188.27931683 138.90893555 194.44262695 C143.88113618 201.16252236 148.67995517 208.00207374 153.48388672 214.84277344 C155.98343307 218.39929382 158.49205761 221.94939773 161 225.5 C163.99158195 229.73596723 166.98178834 233.97286618 169.96484375 238.21484375 C175.07232086 245.47235112 180.22045023 252.69579586 185.4375 259.875 C190.46223393 266.79478501 195.31896514 273.81508137 200.12255859 280.88964844 C204.3722521 287.1293488 208.75531493 293.26202082 213.19311523 299.36889648 C216.85399749 304.40736989 220.47591801 309.47086588 224.0625 314.5625 C224.55443848 315.26076904 225.04637695 315.95903809 225.55322266 316.6784668 C227.52988898 319.48626837 229.5046567 322.29540277 231.47949219 325.10449219 C232.96459128 327.21613276 234.45067909 329.32707143 235.9375 331.4375 C236.67734131 332.48780396 236.67734131 332.48780396 237.43212891 333.55932617 C241.05856796 338.69550721 244.7413521 343.7888525 248.4375 348.875 C252.9409242 355.07537641 257.32106705 361.34714668 261.625 367.6875 C265.93328449 374.0337122 270.34336733 380.27931683 274.90893555 386.44262695 C279.88113618 393.16252236 284.67995517 400.00207374 289.48388672 406.84277344 C291.98343307 410.39929382 294.49205761 413.94939773 297 417.5 C299.99158195 421.73596723 302.98178834 425.97286618 305.96484375 430.21484375 C311.07232086 437.47235112 316.22045023 444.69579586 321.4375 451.875 C326.46223393 458.79478501 331.31896514 465.81508137 336.12255859 472.88964844 C340.3722521 479.1293488 344.75531493 485.26202082 349.19311523 491.36889648 C352.85399749 496.40736989 356.47591801 501.47086588 360.0625 506.5625 C360.55443848 507.26076904 361.04637695 507.95903809 361.55322266 508.6784668 C363.52988898 511.48626837 365.5046567 514.29540277 367.47949219 517.10449219 C373.14889082 525.16572677 378.84907728 533.20213842 384.625 541.1875 C385.16334473 541.93249756 385.70168945 542.67749512 386.25634766 543.44506836 C388.84549165 547.02667822 391.43999041 550.60421338 394.04296875 554.17578125 C394.96630575 555.450405 395.88949148 556.72513836 396.8125 558 C397.45276123 558.87241333 397.45276123 558.87241333 398.10595703 559.76245117 C401 563.77318424 401 563.77318424 401 566 C-29.98 566 -460.96 566 -905 566 C-903.28594905 562.57189809 -902.19869588 560.94897616 -899.59688461 558.34848762 C-898.88714876 557.63425718 -898.17741291 556.92002674 -897.44616991 556.18415296 C-896.66208598 555.40532306 -895.87800205 554.62649316 -895.070158 553.82406235 C-894.23717046 552.98876712 -893.40418292 552.15347189 -892.54595333 551.29286468 C-890.22268916 548.96520406 -887.89499927 546.64213298 -885.5653777 544.32084532 C-883.03592436 541.7982492 -880.51226828 539.26986483 -877.98788464 536.74219728 C-873.55950243 532.30966279 -869.12740723 527.88086811 -864.69288635 523.4544754 C-858.0988984 516.87254029 -851.51063517 510.28489743 -844.92354998 503.69605505 C-833.84373355 492.61360854 -822.75926114 481.53582991 -811.67214584 470.46068573 C-800.69136759 459.49173347 -789.71265267 448.52072282 -778.73669815 437.54694366 C-778.05475301 436.86513601 -777.37280788 436.18332835 -776.67019774 435.48085986 C-773.20708419 432.01842296 -769.74400759 428.55594913 -766.2809452 425.09346107 C-741.73930878 400.5560277 -717.19303666 376.0232365 -692.64404297 351.49316406 C-668.79208829 327.65957221 -644.94223083 303.82388493 -621.09521484 279.98535156 C-620.36040239 279.25080216 -619.62558993 278.51625275 -618.86851043 277.75944428 C-611.48935804 270.38292888 -604.11024832 263.00637079 -596.73116986 255.62978143 C-581.69856016 240.60224443 -566.66566562 225.57499239 -551.63259888 210.5479126 C-550.59575992 209.51148551 -550.59575992 209.51148551 -549.53797472 208.45412051 C-503.36342041 162.29797371 -457.1822261 116.14847051 -411 70 C-408.70556171 73.00486086 -406.78872917 76.01854949 -404.9609375 79.33203125 C-404.38472656 80.37085449 -403.80851562 81.40967773 -403.21484375 82.47998047 C-402.60769531 83.57971191 -402.00054688 84.67944336 -401.375 85.8125 C-396.74732381 94.14350984 -392.05713668 102.40715289 -387.0625 110.5234375 C-383.13383347 117.0228956 -379.64668037 123.78760927 -376.0625 130.48046875 C-369.9563372 141.87413536 -363.66089673 153.12424799 -357.10058594 164.26269531 C-352.9031559 171.40371672 -348.871206 178.61959225 -344.9128418 185.89526367 C-341.57531499 192.00962269 -338.10184111 198.03168364 -334.52246094 204.00756836 C-329.57603585 212.29378734 -325.08628349 220.83487771 -320.51196289 229.32983398 C-314.5795796 240.33266179 -308.51120504 251.24912558 -302.3359375 262.1171875 C-298.75751495 268.41614783 -295.22157798 274.73858429 -291.6875 281.0625 C-287.55231395 288.45804605 -283.391235 295.83577665 -279.171875 303.18359375 C-276.15965906 308.45497165 -273.21139193 313.76247593 -270.25 319.0625 C-263.90501503 330.41636748 -257.47816627 341.72165999 -251 353 C-246.72909372 349.17921374 -243.72568225 344.50223077 -240.5 339.8125 C-239.24116486 337.99850396 -237.98204571 336.18470498 -236.72265625 334.37109375 C-236.09504395 333.46472168 -235.46743164 332.55834961 -234.82080078 331.62451172 C-232.21063588 327.86220645 -229.57811195 324.11597768 -226.9375 320.375 C-226.45273193 319.68752686 -225.96796387 319.00005371 -225.46850586 318.29174805 C-221.87389107 313.20626276 -218.22293255 308.16322045 -214.5625 303.125 C-210.05915385 296.92456512 -205.67893484 290.65285611 -201.375 284.3125 C-197.06671551 277.9662878 -192.65663267 271.72068317 -188.09106445 265.55737305 C-183.11886382 258.83747764 -178.32004483 251.99792626 -173.51611328 245.15722656 C-171.01656693 241.60070618 -168.50794239 238.05060227 -166 234.5 C-163.00841805 230.26403277 -160.01821166 226.02713382 -157.03515625 221.78515625 C-151.92768011 214.52765027 -146.77964151 207.30413676 -141.5625 200.125 C-137.05907629 193.92462426 -132.67891669 187.65286363 -128.375 181.3125 C-124.11338264 175.03472212 -119.75074853 168.85904445 -115.22949219 162.76611328 C-111.43536213 157.63680949 -107.77086838 152.42297697 -104.125 147.1875 C-99.68367346 140.80999401 -95.19612295 134.47261721 -90.625 128.1875 C-85.65834991 121.3539693 -80.80975648 114.44475775 -76 107.5 C-70.67917113 99.8173101 -65.28872825 92.19508429 -59.79296875 84.63671875 C-55.19515331 78.30195082 -50.71111315 71.89119619 -46.23657227 65.46899414 C-42.31761011 59.85452104 -38.33735077 54.2889613 -34.3125 48.75 C-29.83401822 42.5853752 -25.46791468 36.35754805 -21.17871094 30.06005859 C-17.03421479 23.997486 -12.73939857 18.04780633 -8.4140625 12.11328125 C-5.51585314 8.13095367 -2.69759197 4.1211405 0 0 Z " fill="#CCCCCC" transform="translate(2466,1775)"/>
<path d="M0 0 C2.75885194 3.49454578 5.03628916 7.24546952 7.3125 11.0625 C7.86067383 11.97032227 7.86067383 11.97032227 8.41992188 12.89648438 C11.77957661 18.50751395 14.8918419 24.24687797 18 30 C25.09232277 43.08404837 32.28369927 56.10297343 39.62890625 69.046875 C43.21600458 75.37096838 46.76508226 81.71608893 50.3125 88.0625 C56.25644055 98.68550798 62.23766188 109.28088849 68.3828125 119.7890625 C69.30513672 121.36675415 69.30513672 121.36675415 70.24609375 122.97631836 C71.46310507 125.05627546 72.68175124 127.13527721 73.90234375 129.21313477 C77.72720645 135.74421733 81.4060909 142.33941584 85 149 C88.90815316 156.2083431 92.88593734 163.3713415 96.9375 170.5 C101.81308116 179.10180192 106.64200994 187.72830317 111.4375 196.375 C125.00306187 220.83733707 125.00306187 220.83733707 138.81640625 245.16015625 C140.65933704 248.38461056 142.46936198 251.62692675 144.27734375 254.87109375 C152.49370134 269.62286398 152.49370134 269.62286398 161.08520508 284.15722656 C163.70981538 288.47631557 166.15090865 292.87116944 168.5390625 297.32421875 C170.13702401 300.25096643 171.80997777 303.1254862 173.5 306 C176.78843458 311.60463632 179.90578227 317.28655411 183 323 C188.66600723 333.43017498 194.37575795 343.82008894 200.47558594 354.00439453 C204.89628647 361.40954225 208.94291895 369.01663828 213.0078125 376.62109375 C218.71443308 387.28454004 224.53984456 397.82974023 230.86572266 408.14038086 C233.8715579 413.04891939 236.69337167 418.02777448 239.42700195 423.09301758 C241.0732535 426.13537628 242.74919434 429.16002835 244.4296875 432.18359375 C245.57832889 434.26811683 246.72676541 436.35275281 247.875 438.4375 C248.46796875 439.49904297 249.0609375 440.56058594 249.671875 441.65429688 C250.23132812 442.67458984 250.79078125 443.69488281 251.3671875 444.74609375 C251.87362793 445.66060303 252.38006836 446.5751123 252.90185547 447.51733398 C254 450 254 450 254 454 C252.50130579 456.11129199 252.50130579 456.11129199 250.34673697 458.42736793 C249.52980249 459.31504184 248.71286801 460.20271576 247.87117794 461.11728889 C246.94757298 462.1002676 246.02375228 463.08304363 245.09974003 464.0656395 C244.12643574 465.11497901 243.15396386 466.16509114 242.18225423 467.21590751 C239.48990336 470.1217871 236.78465689 473.01537813 234.0767941 475.90679875 C231.7414535 478.40325991 229.413042 480.90613392 227.08450853 483.40894285 C219.97461983 491.05031726 212.84386872 498.67202891 205.70797765 506.28911519 C202.23385617 509.99771839 198.76271657 513.70909704 195.29259186 517.42143985 C160.07844918 555.09298401 124.62854767 592.53302197 88.88011169 629.69805908 C88.04921433 630.56193037 87.21831698 631.42580165 86.36224091 632.31585085 C68.28195356 651.1112261 50.1725854 669.87831154 32.02901271 688.61260132 C23.12666552 697.80486827 14.23010797 707.00272711 5.33666992 716.20361328 C4.45184428 717.11882031 3.56701865 718.03402733 2.65538011 718.9769679 C-23.99306072 746.54579951 -50.28777049 774.41593667 -76.3457768 802.54291437 C-116.49442203 845.86879674 -157.13664346 888.67054776 -198.83955181 930.50709179 C-200.52813925 932.20117632 -202.21608998 933.89589573 -203.9034053 935.59124729 C-346.84009024 1079.19453157 -346.84009024 1079.19453157 -465.08080509 1087.86360155 C-510.74472556 1087.7670807 -556.32904543 1080.03702343 -600 1067 C-599.59882462 1066.26485168 -599.19764923 1065.52970337 -598.78431702 1064.77227783 C-597.98627907 1063.3096048 -597.98627907 1063.3096048 -597.17211914 1061.81738281 C-596.38473106 1060.37434784 -596.38473106 1060.37434784 -595.58143616 1058.90216064 C-594.13290631 1056.24390202 -592.68835742 1053.58353726 -591.24609375 1050.921875 C-585.05887711 1039.51946814 -578.74899335 1028.19357978 -572.34765625 1016.91015625 C-568.89757977 1010.82720661 -565.47706421 1004.72793907 -562.0625 998.625 C-561.48274414 997.58915771 -560.90298828 996.55331543 -560.30566406 995.48608398 C-557.34355499 990.19244225 -554.38397892 984.89739082 -551.42578125 979.6015625 C-545.51171596 969.01969399 -539.56370334 958.45987699 -533.53417969 947.94335938 C-527.88016284 938.06842303 -522.33573358 928.13238128 -516.78662109 918.19824219 C-513.83941463 912.92242848 -510.88906544 907.64837611 -507.9375 902.375 C-507.35685791 901.33746582 -506.77621582 900.29993164 -506.17797852 899.23095703 C-501.79778347 891.41009768 -497.38556928 883.6077 -492.96679688 875.80859375 C-488.74955226 868.35319879 -484.58840474 860.8674937 -480.4375 853.375 C-475.51680871 844.49497353 -470.54084567 835.65085735 -465.48583984 826.84667969 C-461.02826817 819.07457976 -456.65163044 811.25825549 -452.28100586 803.43701172 C-448.37363269 796.44679144 -444.44575956 789.46861876 -440.5 782.5 C-435.97792341 774.51225893 -431.4803488 766.51121971 -427 758.5 C-421.98940497 749.5406579 -416.95170949 740.59718026 -411.89453125 731.6640625 C-407.90963231 724.62053653 -403.95010006 717.56309283 -400 710.5 C-394.98940497 701.5406579 -389.95170949 692.59718026 -384.89453125 683.6640625 C-380.90963231 676.62053653 -376.95010006 669.56309283 -373 662.5 C-368.51965075 654.48877949 -364.02193908 646.4878194 -359.5 638.5 C-355.00155105 630.55239863 -350.52291559 622.59401145 -346.0625 614.625 C-345.48258301 613.58891602 -344.90266602 612.55283203 -344.30517578 611.48535156 C-341.34331 606.19190897 -338.38383624 600.89713541 -335.42578125 595.6015625 C-329.51171596 585.01969399 -323.56370334 574.45987699 -317.53417969 563.94335938 C-311.88016284 554.06842303 -306.33573358 544.13238128 -300.78662109 534.19824219 C-297.83941463 528.92242848 -294.88906544 523.64837611 -291.9375 518.375 C-291.35685791 517.33746582 -290.77621582 516.29993164 -290.17797852 515.23095703 C-285.79778347 507.41009768 -281.38556928 499.6077 -276.96679688 491.80859375 C-272.74955226 484.35319879 -268.58840474 476.8674937 -264.4375 469.375 C-259.51680871 460.49497353 -254.54084567 451.65085735 -249.48583984 442.84667969 C-245.02826817 435.07457976 -240.65163044 427.25825549 -236.28100586 419.43701172 C-232.37363269 412.44679144 -228.44575956 405.46861876 -224.5 398.5 C-219.97792341 390.51225893 -215.4803488 382.51121971 -211 374.5 C-205.98940497 365.5406579 -200.95170949 356.59718026 -195.89453125 347.6640625 C-191.90963231 340.62053653 -187.95010006 333.56309283 -184 326.5 C-178.98940497 317.5406579 -173.95170949 308.59718026 -168.89453125 299.6640625 C-164.90963231 292.62053653 -160.95010006 285.56309283 -157 278.5 C-152.51965075 270.48877949 -148.02193908 262.4878194 -143.5 254.5 C-139.00155105 246.55239863 -134.52291559 238.59401145 -130.0625 230.625 C-129.48258301 229.58891602 -128.90266602 228.55283203 -128.30517578 227.48535156 C-125.34331 222.19190897 -122.38383624 216.89713541 -119.42578125 211.6015625 C-113.51171596 201.01969399 -107.56370334 190.45987699 -101.53417969 179.94335938 C-95.88016284 170.06842303 -90.33573358 160.13238128 -84.78662109 150.19824219 C-81.83941463 144.92242848 -78.88906544 139.64837611 -75.9375 134.375 C-75.06653687 132.81869873 -75.06653687 132.81869873 -74.17797852 131.23095703 C-69.79778347 123.41009768 -65.38556928 115.6077 -60.96679688 107.80859375 C-56.74955226 100.35319879 -52.58840474 92.8674937 -48.4375 85.375 C-43.51680871 76.49497353 -38.54084567 67.65085735 -33.48583984 58.84667969 C-29.6339191 52.13057614 -25.83979261 45.38332757 -22.0625 38.625 C-17.30621687 30.11675114 -12.54034271 21.61412984 -7.75 13.125 C-7.20093994 12.14998535 -6.65187988 11.1749707 -6.08618164 10.17041016 C-5.57821045 9.27112793 -5.07023926 8.3718457 -4.546875 7.4453125 C-4.10182617 6.65656738 -3.65677734 5.86782227 -3.19824219 5.05517578 C-2.19391587 3.33259654 -1.10606031 1.65909047 0 0 Z " fill="#CCCCCC" transform="translate(1733,1273)"/>
<path d="M0 0 C79.2 0 158.4 0 240 0 C240 440.22 240 880.44 240 1334 C-279.09 1334 -798.18 1334 -1333 1334 C-1330.03 1330.535 -1330.03 1330.535 -1327 1327 C-1325.63149869 1324.96199891 -1324.30280896 1322.89665585 -1323.01683021 1320.80560279 C-1307.58759941 1296.57468057 -1286.13613338 1270.96490157 -1257.01012961 1264.19772664 C-1239.9060181 1260.84856399 -1222.49727023 1260.14422203 -1205.11676025 1259.784729 C-1204.38681438 1259.7692819 -1203.6568685 1259.75383479 -1202.90480306 1259.73791959 C-1183.9016175 1259.35382469 -1164.91162938 1259.53489208 -1145.90975688 1259.8954354 C-1132.93679399 1260.14136845 -1119.97071923 1260.24006577 -1106.99546051 1260.21353912 C-1106.11542417 1260.21181759 -1105.23538783 1260.21009606 -1104.32868372 1260.20832236 C-1099.83949653 1260.19893696 -1095.35031739 1260.1874202 -1090.86113727 1260.17515219 C-1058.56233733 1260.09121584 -1026.27067929 1260.29471311 -993.97406769 1260.65619659 C-962.03744191 1261.01278914 -930.10387933 1261.24294427 -898.16527557 1261.30736542 C-896.67190976 1261.31046249 -896.67190976 1261.31046249 -895.14837493 1261.31362212 C-886.05394791 1261.3324168 -876.95951853 1261.34967788 -867.86508516 1261.3651006 C-845.26763113 1261.40344107 -822.67024794 1261.46098591 -800.07287216 1261.5316124 C-799.04437616 1261.53481144 -798.01588016 1261.53801049 -796.95621762 1261.54130648 C-747.04941511 1261.69821337 -697.14462975 1262.07650461 -647.23925781 1262.47363281 C-629.94313073 1262.61114511 -612.64699673 1262.7476727 -595.35083008 1262.88012695 C-594.27797152 1262.8883439 -593.20511296 1262.89656085 -592.09974354 1262.9050268 C-542.13494302 1263.28635267 -492.16980157 1263.5087775 -442.20392941 1263.69209616 C-438.93071957 1263.70413008 -435.65751013 1263.71626806 -432.3843008 1263.72844037 C-398.26819612 1263.8552629 -364.15206566 1263.97448232 -330.03592235 1264.09040672 C-328.57372196 1264.09537598 -328.57372196 1264.09537598 -327.08198217 1264.10044564 C-325.30828434 1264.10646877 -323.53458649 1264.11248334 -321.76088858 1264.11848489 C-156.83681695 1264.67813788 8.07698867 1265.88815947 173 1267 C173 871 173 475 173 67 C94.13 67 15.26 67 -66 67 C-45.59815464 43.19784708 -22.16729322 22.16729322 0 0 Z " fill="#CCCCCC" transform="translate(2760,1140)"/>
<path d="M0 0 C519.09 0 1038.18 0 1573 0 C1570.03 3.465 1570.03 3.465 1567 7 C1565.63149869 9.03800109 1564.30280896 11.10334415 1563.01683021 13.19439721 C1547.58759941 37.42531943 1526.13613338 63.03509843 1497.01012961 69.80227336 C1479.9060181 73.15143601 1462.49727023 73.85577797 1445.11676025 74.215271 C1444.38681438 74.2307181 1443.6568685 74.24616521 1442.90480306 74.26208041 C1423.9016175 74.64617531 1404.91162938 74.46510792 1385.90975688 74.1045646 C1372.93679399 73.85863155 1359.97071923 73.75993423 1346.99546051 73.78646088 C1346.11542417 73.78818241 1345.23538783 73.78990394 1344.32868372 73.79167764 C1339.83949653 73.80106304 1335.35031739 73.8125798 1330.86113727 73.82484781 C1298.56233733 73.90878416 1266.27067929 73.70528689 1233.97406769 73.34380341 C1202.03744191 72.98721086 1170.10387933 72.75705573 1138.16527557 72.69263458 C1137.16969836 72.69056987 1136.17412115 72.68850516 1135.14837493 72.68637788 C1126.05394791 72.6675832 1116.95951853 72.65032212 1107.86508516 72.6348994 C1085.26763113 72.59655893 1062.67024794 72.53901409 1040.07287216 72.4683876 C1038.53012816 72.46358903 1038.53012816 72.46358903 1036.95621762 72.45869352 C987.04941511 72.30178663 937.14462975 71.92349539 887.23925781 71.52636719 C869.94313073 71.38885489 852.64699673 71.2523273 835.35083008 71.11987305 C834.27797152 71.1116561 833.20511296 71.10343915 832.09974354 71.0949732 C782.13494302 70.71364733 732.16980157 70.4912225 682.20392941 70.30790384 C678.93071957 70.29586992 675.65751013 70.28373194 672.3843008 70.27155963 C638.26819612 70.1447371 604.15206566 70.02551768 570.03592235 69.90959328 C569.06112209 69.90628044 568.08632183 69.9029676 567.08198217 69.89955436 C565.30828434 69.89353123 563.53458649 69.88751666 561.76088858 69.88151511 C396.83681695 69.32186212 231.92301133 68.11184053 67 67 C67 462.67 67 858.34 67 1266 C145.87 1266 224.74 1266 306 1266 C292.08438128 1293.83123745 263.00252511 1310.99747489 241 1333 C161.47 1333 81.94 1333 0 1333 C0 893.11 0 453.22 0 0 Z " fill="#CCCCCC" transform="translate(1000,1140)"/>
<path d="M0 0 C2.58226887 1.33373492 4.32756367 3.10505023 6.37336336 5.16808981 C7.27399508 6.06894811 8.17462679 6.96980642 9.10255038 7.89796346 C10.07612115 8.88685352 11.0495263 9.87590665 12.02277743 10.86511129 C13.02531534 11.87324623 14.02851901 12.8807195 15.03235995 13.88755697 C17.66937989 16.53601723 20.29726567 19.19336334 22.92335116 21.85266012 C25.60598313 24.56601041 28.29715495 27.27086109 30.98762118 29.97643942 C36.26294395 35.28391199 41.52864613 40.60080074 46.78840243 45.92370504 C43.017778 50.42385054 39.13195416 54.72503158 34.97105354 58.8657251 C34.1350208 59.70375171 34.1350208 59.70375171 33.28209852 60.55870815 C31.41949871 62.42453421 29.55337022 64.28678931 27.68723105 66.14907491 C26.32759427 67.50957771 24.96817687 68.87029979 23.60895842 70.23122053 C19.85826146 73.98533556 16.10444531 77.73631819 12.35013036 81.48681456 C8.25673402 85.57715178 4.16624425 89.67039395 0.07538425 93.76326755 C-7.60201336 101.44358443 -15.28167718 109.12163075 -22.96235307 116.79866907 C-30.26126629 124.09417883 -37.55898046 131.39088584 -44.85564163 138.68864799 C-45.34822973 139.18130908 -45.84081783 139.67397016 -46.34833284 140.18156037 C-48.86338369 142.69699372 -51.37841698 145.21244461 -53.89344428 147.7279015 C-72.26999043 166.10751119 -90.64900165 184.4846543 -109.02924932 202.86056226 C-127.6626167 221.48954642 -146.29489149 240.11962236 -164.92582525 258.7510404 C-165.51308404 259.33831347 -166.10034282 259.92558655 -166.70539733 260.53065578 C-172.08711764 265.91250784 -177.46882576 271.29437208 -182.85051938 276.67625083 C-196.34644067 290.17263525 -209.84252728 303.66885435 -223.33872355 317.16496378 C-223.95721309 317.78344957 -224.57570263 318.40193536 -225.21293427 319.03916315 C-255.71350525 349.53951987 -286.21595325 380.03799925 -316.71852125 410.53635877 C-327.45813849 421.27449684 -338.19774681 432.01264382 -348.93732227 442.75082368 C-349.93871766 443.75208891 -349.93871766 443.75208891 -350.96034325 444.77358172 C-381.87957566 475.68881745 -412.79752577 506.60533546 -443.71514702 537.52218245 C-445.73694252 539.5439272 -447.75873863 541.56567134 -449.7805349 543.58741533 C-461.97191134 555.77847767 -474.16327441 567.96955338 -486.35462206 580.16064452 C-516.66292456 610.46830815 -546.97138736 640.77581148 -577.27995886 671.08320612 C-577.96996509 671.77318572 -578.65997133 672.46316533 -579.37088685 673.17405341 C-624.06436319 717.86580204 -668.75849945 762.55689066 -713.45318807 807.24742693 C-714.16682273 807.96099529 -714.88045739 808.67456366 -715.61571734 809.40975532 C-737.33949366 831.13151093 -759.06331881 852.85321771 -780.78715352 874.57491493 C-804.82731375 898.61271019 -828.86746565 922.65051379 -852.90758146 946.68835348 C-853.63047292 947.41117644 -854.35336438 948.1339994 -855.09816165 948.87872609 C-923.75204275 1017.52610721 -992.40457934 1086.17483285 -1061.05676815 1154.82390638 C-1063.96451031 1157.7315164 -1066.87225286 1160.63912603 -1069.77999542 1163.54673564 C-1096.53759898 1190.3031158 -1123.29518675 1217.05951174 -1150.0527547 1243.8159275 C-1151.12001326 1244.8831401 -1151.12001326 1244.8831401 -1152.2088326 1245.97191254 C-1154.36308047 1248.12606766 -1156.51732834 1250.28022278 -1158.67157621 1252.4343779 C-1216.87019219 1310.630488 -1275.06894583 1368.82646044 -1333.26778865 1427.02234369 C-1335.32123657 1429.07568726 -1337.37468438 1431.12903094 -1339.42813217 1433.18237464 C-1406.12426137 1499.8751225 -1472.82063852 1566.56762238 -1709.41423429 1803.1422109 C-1709.99165288 1803.71957952 -1710.56907146 1804.29694815 -1711.16398758 1804.89181279 C-1769.51309573 1863.23587206 -1827.86229083 1921.57984438 -1886.21159757 1979.92370504 C-1889.70093335 1978.27667368 -1891.97115656 1976.4069072 -1894.70476164 1973.65759176 C-1895.5853726 1972.77682974 -1896.46598356 1971.89606771 -1897.3732797 1970.98861593 C-1898.32470188 1970.02698153 -1899.2760136 1969.06523784 -1900.22722257 1968.10339254 C-1901.20755887 1967.11932397 -1902.18833925 1966.13569762 -1903.16954435 1965.15249532 C-1905.74514224 1962.5692779 -1908.31467615 1959.98010992 -1910.88298429 1957.38964742 C-1913.50710824 1954.74502884 -1916.13693528 1952.10609494 -1918.76628507 1949.46667379 C-1923.92031428 1944.29122432 -1929.06794914 1939.10947382 -1934.21159757 1933.92370504 C-1932.6120233 1929.96443264 -1929.86626627 1927.29971534 -1926.88693197 1924.34733377 C-1926.33424321 1923.79173066 -1925.78155445 1923.23612756 -1925.21211754 1922.663688 C-1923.34366593 1920.78786062 -1921.46812542 1918.91928345 -1919.59258677 1917.0505439 C-1918.23629822 1915.69189694 -1916.88044831 1914.33281199 -1915.52499894 1912.97332782 C-1911.76778424 1909.20751143 -1908.00430707 1905.44800697 -1904.23985285 1901.68942938 C-1900.14207277 1897.59585617 -1896.05008129 1893.49650364 -1891.95736046 1889.39787337 C-1884.7454513 1882.17717284 -1877.52982453 1874.96020273 -1870.31173423 1867.74568143 C-1862.52218396 1859.95994421 -1854.73482161 1852.17202825 -1846.95009482 1844.38146809 C-1846.45720888 1843.88821567 -1845.96432295 1843.39496325 -1845.45650109 1842.88676379 C-1842.94006391 1840.36843667 -1840.42366097 1837.85007535 -1837.90726917 1835.33170289 C-1819.50649601 1816.91660299 -1801.10073905 1798.50649076 -1782.6924745 1780.09887975 C-1764.02725699 1761.43429907 -1745.36419448 1742.76756752 -1726.70376981 1724.09819502 C-1725.51504129 1722.90890096 -1724.32631272 1721.71960695 -1723.13758411 1720.53031298 C-1718.34481989 1715.73526119 -1713.55207168 1710.94019339 -1708.75934174 1706.14510733 C-1695.24777529 1692.62690811 -1681.73583339 1679.10908421 -1668.2236308 1665.59152084 C-1667.29473353 1664.66225495 -1667.29473353 1664.66225495 -1666.34707065 1663.71421601 C-1630.43248536 1627.78546983 -1594.51245041 1591.86217261 -1558.59252599 1555.93876441 C-1553.87593461 1551.22171505 -1549.15934378 1546.50466514 -1544.44275437 1541.78761382 C-1543.09208331 1540.43681093 -1541.74141186 1539.08600843 -1540.39074001 1537.73520633 C-1510.77038653 1508.11199456 -1481.15157455 1478.48724178 -1451.53311676 1448.86213464 C-1438.67294662 1435.99907955 -1425.81272286 1423.13607807 -1412.95249845 1410.27307725 C-1412.2794344 1409.59986773 -1411.60637035 1408.92665821 -1410.91291041 1408.23304841 C-1378.51868836 1375.83182896 -1346.12408129 1343.43099446 -1313.72903646 1311.03059763 C-1313.03798323 1310.33943015 -1312.34693 1309.64826268 -1311.63493576 1308.93615073 C-1267.59087203 1264.88482808 -1223.54503979 1220.83527415 -1179.49803745 1176.78688984 C-1175.88634696 1173.17508502 -1172.27465931 1169.56327736 -1168.66297128 1165.95147008 C-1156.34174639 1153.62984047 -1144.02051088 1141.30822149 -1131.69927485 1128.98660303 C-1125.88185308 1123.16900048 -1120.0644328 1117.35139643 -1114.24701347 1111.53379144 C-1110.60683654 1107.89349849 -1106.96665874 1104.25320641 -1103.32647904 1100.61291623 C-1034.5611139 1031.84545782 -965.79808081 963.0756707 -897.04436125 894.29656881 C-896.32037521 893.57231562 -895.59638918 892.84806244 -894.85046417 892.10186218 C-872.22958298 869.47261884 -849.60899118 846.84308623 -826.98845304 824.21349996 C-803.77865806 800.99442288 -780.56882245 777.77538641 -757.35875524 754.55658144 C-756.64414129 753.84169815 -755.92952733 753.12681486 -755.19325841 752.39026844 C-710.45452077 707.63469456 -665.71275949 662.88214525 -620.96774496 618.13284677 C-620.27690525 617.44194023 -619.58606555 616.75103368 -618.8742913 616.03919057 C-588.53754822 585.69952183 -558.20012441 555.36053385 -527.86195113 525.02229523 C-515.65770991 512.81802503 -503.4535455 500.61367802 -491.24941437 488.40929773 C-489.22585002 486.38569426 -487.2022824 484.36209406 -485.17871411 482.33849452 C-454.20746537 451.36673586 -423.23812167 420.39307565 -392.27445854 389.41373318 C-391.60616546 388.74510206 -390.93787237 388.07647093 -390.24932798 387.38757825 C-379.49820194 376.63099403 -368.74722529 365.87426051 -357.99626428 355.11751134 C-327.49275503 324.59758949 -296.98796122 294.07895661 -266.47421063 263.56927353 C-265.85566436 262.95080871 -265.23711809 262.33234389 -264.59982799 261.69513771 C-251.10838495 248.20552417 -237.61624321 234.71660969 -224.1234153 221.22838136 C-218.7429488 215.84972806 -213.36257377 210.47098327 -207.98222746 205.09220976 C-207.39530434 204.50546317 -206.80838121 203.91871659 -206.20367255 203.31418981 C-187.55748658 184.67352555 -168.91901629 166.02517085 -150.28494808 147.3723937 C-131.95081567 129.01991769 -113.60917451 110.67498483 -95.25640601 92.34114406 C-92.74768578 89.83500893 -90.23905302 87.32878626 -87.73047268 84.82251111 C-87.23932904 84.33182554 -86.7481854 83.84113996 -86.24215862 83.33558512 C-78.47200324 75.57221913 -70.7102616 67.8004973 -62.95201464 60.02523261 C-55.37688282 52.43382325 -47.79283337 44.85142405 -40.19952874 37.27819155 C-36.15087253 33.2397222 -32.10637868 29.1973023 -28.07267051 25.14389776 C-24.42154995 21.47509197 -20.75937557 17.81773278 -17.08757426 14.16962787 C-15.76440014 12.85091214 -14.44549412 11.52789806 -13.13118878 10.20034301 C-11.36083514 8.41333043 -9.57607544 6.64213939 -7.78655084 4.87435714 C-7.01819061 4.0876905 -7.01819061 4.0876905 -6.23430795 3.28513159 C-2.76574751 -0.09541184 -2.76574751 -0.09541184 0 0 Z " fill="#CCCCCC" transform="translate(2944.211597573478,817.0762949597556)"/>
<path d="M0 0 C1.12728516 0.02102783 1.12728516 0.02102783 2.27734375 0.04248047 C38.06591953 0.77424519 73.49377938 14.02933508 101 37 C101.8660083 37.70793701 101.8660083 37.70793701 102.74951172 38.43017578 C135.96488441 65.6031298 157.85688552 105.10309257 162.72265625 147.921875 C164.46116934 169.93933787 163.11547169 192.7366484 157 214 C156.64035156 215.26070312 156.28070312 216.52140625 155.91015625 217.8203125 C152.9295425 227.43454811 148.74609304 236.15306674 144 245 C143.68691895 245.5966748 143.37383789 246.19334961 143.05126953 246.80810547 C127.39526295 276.52053722 103.21867606 299.00916428 74 315 C72.58074219 315.81791016 72.58074219 315.81791016 71.1328125 316.65234375 C64.33246769 320.52558362 57.4088456 323.4848496 50 326 C49.36803711 326.21543457 48.73607422 326.43086914 48.08496094 326.65283203 C14.06624603 337.94531702 -24.09168988 336.8192892 -58 326 C-59.60294922 325.49919922 -59.60294922 325.49919922 -61.23828125 324.98828125 C-83.78819709 317.12067118 -103.41139833 302.80694591 -121 287 C-122.01320313 286.09701172 -122.01320313 286.09701172 -123.046875 285.17578125 C-149.96625565 259.73055716 -165.4371831 223.14748155 -170 187 C-170.14953125 185.83339844 -170.2990625 184.66679688 -170.453125 183.46484375 C-170.74245413 180.63627078 -170.9055492 177.84139504 -171 175 C-171.0515625 173.90429688 -171.103125 172.80859375 -171.15625 171.6796875 C-171.6374924 152.47009488 -169.31695983 133.15629335 -163 115 C-162.69320313 113.96617188 -162.38640625 112.93234375 -162.0703125 111.8671875 C-159.41887158 103.06815788 -155.30041963 95.08386045 -151 87 C-150.46632813 85.98035156 -149.93265625 84.96070313 -149.3828125 83.91015625 C-139.40375658 65.81380858 -125.2246432 49.66430176 -109 37 C-108.25878906 36.35804687 -107.51757812 35.71609375 -106.75390625 35.0546875 C-77.6676555 10.15242083 -37.70281892 -1.05190202 0 0 Z " fill="#CCCCCC" transform="translate(1406,1273)"/>
<path d="M0 0 C4.48945092 1.91786108 8.3566105 1.9359214 13.1887207 1.97070312 C14.1124649 1.98865433 15.03620911 2.00660553 15.98794556 2.02510071 C18.92201246 2.07903861 21.85591822 2.11304637 24.7902832 2.14648438 C26.78639929 2.17967203 28.78249417 2.21416303 30.77856445 2.25 C35.65735414 2.33475563 40.53609739 2.40164555 45.4152832 2.45898438 C45.52322598 4.72878102 45.60084496 7.00003634 45.6652832 9.27148438 C45.71168945 10.53605469 45.7580957 11.800625 45.8059082 13.10351562 C45.4152832 16.45898438 45.4152832 16.45898438 43.63842773 18.36474609 C40.32508968 19.99558084 36.91705312 20.25309839 33.2902832 20.58398438 C28.19796506 20.92003776 28.19796506 20.92003776 23.4152832 22.45898438 C23.7040332 23.22339844 23.9927832 23.9878125 24.2902832 24.77539062 C28.87772904 38.01208329 28.99734122 50.4947372 23.4152832 63.45898438 C16.95045542 76.20440909 7.50897766 83.81984484 -5.79174805 88.61523438 C-12.03744746 90.65108517 -18.0147952 92.1842422 -24.5847168 92.45898438 C-25.31432617 92.49894531 -26.04393555 92.53890625 -26.7956543 92.58007812 C-30.81233586 92.69350601 -34.60845246 92.49137293 -38.56518555 91.79882812 C-45.86028004 90.21352634 -45.86028004 90.21352634 -52.90893555 91.55664062 C-56.31593459 94.91414331 -57.45223497 98.24456767 -57.9597168 102.89648438 C-57.94476507 106.56586875 -57.94476507 106.56586875 -55.3347168 108.77148438 C-46.05148619 114.46801225 -36.13301903 114.69748089 -25.4597168 114.89648438 C-16.30686698 115.16827263 -7.24624432 115.73196898 1.8527832 116.77148438 C3.35059326 116.92991821 3.35059326 116.92991821 4.87866211 117.09155273 C15.97428573 118.44892667 28.38750397 122.10672842 36.30200195 130.44726562 C41.302687 136.87671783 42.78505043 142.16252408 42.7277832 150.20898438 C42.72041138 151.41832642 42.72041138 151.41832642 42.71289062 152.65209961 C42.59934896 158.40545981 42.0114417 163.25615661 39.4152832 168.45898438 C38.9222168 169.55533203 38.9222168 169.55533203 38.41918945 170.67382812 C31.81272541 184.04677438 19.16151849 191.74038228 5.82543945 197.31835938 C-4.64596095 200.82082091 -13.99188422 201.88860408 -24.94921875 201.74023438 C-27.27905341 201.70889241 -29.60820689 201.69922661 -31.93823242 201.69335938 C-42.38000858 201.64121281 -52.11987394 201.3951595 -62.0222168 197.77148438 C-62.75939941 197.50456787 -63.49658203 197.23765137 -64.25610352 196.96264648 C-75.69313447 192.68349379 -85.55324068 186.40499659 -91.5847168 175.45898438 C-94.54384332 167.02547379 -95.34783364 157.33926283 -91.5222168 149.08398438 C-87.30801365 141.80061368 -82.03980709 137.31272818 -74.6003418 133.50195312 C-72.36572799 132.39263441 -72.36572799 132.39263441 -69.5847168 130.45898438 C-70.8840918 129.71648438 -70.8840918 129.71648438 -72.2097168 128.95898438 C-76.61392643 126.02981882 -80.59435838 121.55083506 -82.2253418 116.45898438 C-83.82955512 107.53118847 -81.63009354 101.00653983 -76.5847168 93.45898438 C-73.78795024 90.49098721 -70.77795497 87.98316312 -67.5847168 85.45898438 C-66.56914681 84.47480065 -65.56274659 83.48048216 -64.5847168 82.45898438 C-65.16479492 82.19214844 -65.74487305 81.9253125 -66.3425293 81.65039062 C-76.31000636 76.35408313 -82.65570113 66.60336603 -85.89331055 56.03710938 C-88.55191836 42.27843846 -87.36784426 29.18926335 -79.8972168 17.27148438 C-71.10736625 4.7898966 -59.47925289 -1.67747411 -44.5847168 -4.54101562 C-43.68237305 -4.7240625 -42.7800293 -4.90710937 -41.8503418 -5.09570312 C-28.4095251 -6.92854177 -12.0141157 -7.1628505 0 0 Z " fill="#CCCCCC" transform="translate(2405.584716796875,2981.541015625)"/>
<path d="M0 0 C16.65490512 15.40414149 21.47031243 36.2336892 23.13671875 57.98828125 C23.69149819 78.22567056 19.46894365 98.07115126 6.8515625 114.265625 C6.33078125 114.94882813 5.81 115.63203125 5.2734375 116.3359375 C-4.44291077 128.2770571 -19.16993033 135.59830851 -34.1484375 138.265625 C-39.09429505 138.68688316 -43.99911792 138.74338317 -48.9609375 138.703125 C-49.62174316 138.69941895 -50.28254883 138.69571289 -50.96337891 138.69189453 C-70.93833892 138.53232695 -87.04096378 133.13989376 -101.6171875 119.078125 C-115.44124474 103.71806141 -121.57727179 84.2337153 -121.4609375 63.765625 C-121.45602295 62.72825195 -121.4511084 61.69087891 -121.44604492 60.62207031 C-121.23513523 46.51383428 -119.71917095 32.94031849 -113.1484375 20.265625 C-112.65601563 19.27304688 -112.16359375 18.28046875 -111.65625 17.2578125 C-104.50725617 3.88337906 -94.41694519 -4.16226873 -81.1484375 -10.734375 C-80.29507812 -11.16621094 -79.44171875 -11.59804687 -78.5625 -12.04296875 C-53.43545976 -23.43778932 -20.81969733 -16.80717384 0 0 Z " fill="#CCCCCC" transform="translate(1728.1484375,2992.734375)"/>
<path d="M0 0 C20.89868909 0 20.89868909 0 25.77124023 4.71337891 C30.07313439 9.79057247 34.11346413 15.01963188 38.0625 20.375 C44.73303781 29.34664391 51.55279372 38.18971655 58.43798828 46.99707031 C62.32073814 51.97582615 66.15598725 56.99132776 70 62 C71.66609253 64.16710847 73.33305199 66.33354953 75 68.5 C75.83334905 69.58332124 76.66668241 70.66665456 77.5 71.75 C77.9125 72.28625 78.325 72.8225 78.75 73.375 C83.33333333 79.33333333 87.91666667 85.29166667 92.5 91.25 C92.9122583 91.78592773 93.3245166 92.32185547 93.74926758 92.87402344 C94.58507376 93.96058779 95.42084835 95.04717645 96.2565918 96.13378906 C98.30183636 98.79288548 100.34769991 101.4514994 102.39453125 104.109375 C107.66896038 110.96016824 112.92625547 117.82383909 118.17626953 124.69335938 C122.30146677 130.0898132 126.43759183 135.47768857 130.58203125 140.859375 C132.28933322 143.07693685 133.99517898 145.29556032 135.69921875 147.515625 C136.14692627 148.09860352 136.59463379 148.68158203 137.0559082 149.28222656 C138.29535194 150.89627915 139.53440804 152.51062937 140.7734375 154.125 C142.82245058 156.77074321 144.90951874 159.38689843 147 162 C147.495 81.81 147.495 81.81 148 0 C156.58 0 165.16 0 174 0 C174 70.29 174 140.58 174 213 C154 213 154 213 148 209 C146.43945312 207.36279297 146.43945312 207.36279297 145.28125 205.7421875 C144.83144775 205.12609619 144.38164551 204.51000488 143.91821289 203.87524414 C143.45020264 203.21516357 142.98219238 202.55508301 142.5 201.875 C141.44825198 200.43239856 140.39479927 198.99103875 139.33984375 197.55078125 C138.52169189 196.42857178 138.52169189 196.42857178 137.68701172 195.28369141 C134.88308279 191.48804 131.97226273 187.777254 129.0625 184.0625 C122.80915047 176.0561086 116.62942595 167.99574162 110.46679688 159.91943359 C108.3180706 157.107635 106.15933942 154.30365845 104 151.5 C100.15615399 146.5079922 96.32556222 141.50603093 92.5 136.5 C87.01440437 129.3221672 81.51203238 122.15754939 76 115 C73.91382771 112.28871725 71.82829415 109.57694323 69.74267578 106.86523438 C67.69766013 104.20647522 65.65205183 101.54817823 63.60546875 98.890625 C58.33390071 92.04354794 53.07890642 85.18401823 47.83251953 78.31762695 C43.67422862 72.87687824 39.50040079 67.44834538 35.31640625 62.02734375 C32.51870243 58.37098547 29.76235351 54.68313802 27 51 C26.67 104.46 26.34 157.92 26 213 C17.42 213 8.84 213 0 213 C0 142.71 0 72.42 0 0 Z " fill="#CCCCCC" transform="translate(1399,2916)"/>
<path d="M0 0 C8.47144249 6.19353265 13.32514763 14.27952455 18.3125 23.375 C18.70179687 22.68535156 19.09109375 21.99570313 19.4921875 21.28515625 C26.96002235 8.74125854 36.34564566 0.70598077 50.46875 -3.01171875 C65.07171988 -6.16098561 79.96074817 -6.2610511 93 1.5625 C105.56777341 10.17938021 112.3552275 21.26895995 115.6789093 36.08659363 C117.32505305 45.64384923 116.67194655 55.61165618 116.60546875 65.26953125 C116.59986459 67.67233514 116.59559837 70.07514249 116.59260559 72.47795105 C116.58122141 78.76284462 116.55181014 85.04752596 116.51849365 91.33233643 C116.48765347 97.76124197 116.47407059 104.19018223 116.45898438 110.61914062 C116.42693375 123.20453472 116.37421894 135.7897164 116.3125 148.375 C107.4025 148.375 98.4925 148.375 89.3125 148.375 C89.29062622 143.68240967 89.29062622 143.68240967 89.26831055 138.89501953 C89.2178834 128.53732176 89.15127386 118.17977303 89.07678509 107.82222176 C89.03213403 101.54490579 88.99286611 95.26765394 88.96606445 88.99023438 C88.93997925 82.92765028 88.89953948 76.86531362 88.84931374 70.80288315 C88.83268036 68.49457766 88.82114418 66.1862294 88.81488609 63.87787247 C88.80520677 60.63462886 88.77710091 57.39201327 88.74487305 54.14892578 C88.74630814 53.20305099 88.74774323 52.25717621 88.7492218 51.28263855 C88.59904935 40.53626199 85.66429138 30.87545225 78.0625 23.0625 C69.28460605 17.67606508 59.80253716 17.21920002 49.73046875 18.7734375 C42.71568901 20.66533957 37.09408164 25.45406994 32.9296875 31.32421875 C28.47599531 39.45633079 28.01500877 48.79959327 27.99365234 57.87353516 C27.98360672 58.86985962 27.9735611 59.86618408 27.96321106 60.8927002 C27.93259193 64.14981568 27.91540349 67.40684979 27.8984375 70.6640625 C27.87970872 72.93664235 27.86013405 75.20921538 27.8397522 77.48178101 C27.7886057 83.43613646 27.7488867 89.39051442 27.71160889 95.3449707 C27.67145925 101.4318592 27.62041707 107.5186555 27.5703125 113.60546875 C27.47376032 125.52858725 27.39029749 137.45174437 27.3125 149.375 C18.4025 149.375 9.4925 149.375 0.3125 149.375 C0.282771 144.62911499 0.282771 144.62911499 0.25244141 139.78735352 C0.18544731 129.31791766 0.107809 118.84858005 0.02497292 108.37925816 C-0.02491071 102.03354122 -0.07124152 95.6878403 -0.109375 89.34204102 C-0.14632789 83.21467206 -0.1927151 77.08743966 -0.24556351 70.96018791 C-0.26405431 68.62592916 -0.27918175 66.29164119 -0.29084396 63.95733833 C-0.30779736 60.68048328 -0.3368545 57.40393737 -0.36865234 54.12719727 C-0.37081253 53.16837646 -0.37297272 52.20955566 -0.37519836 51.22167969 C-0.50229063 40.92686259 -2.38562282 32.70248056 -8.6875 24.375 C-16.28113466 18.04697112 -25.13946301 17.38715953 -34.68505859 18.09375 C-43.79682493 19.37352991 -51.54014419 25.91062808 -57.6875 32.375 C-59.81153972 35.56105959 -59.94163535 36.37099223 -59.9659729 40.02568054 C-59.97713638 40.98060394 -59.98829987 41.93552734 -59.99980164 42.91938782 C-60.00196182 43.96523544 -60.00412201 45.01108307 -60.00634766 46.08862305 C-60.01639328 47.1912146 -60.0264389 48.29380615 -60.03678894 49.42980957 C-60.06773295 53.08210722 -60.08468738 56.7343312 -60.1015625 60.38671875 C-60.1202651 62.91592549 -60.13983782 65.44512592 -60.1602478 67.97431946 C-60.20641203 73.95595178 -60.24378576 79.93757684 -60.27692068 85.91929036 C-60.3151337 92.7294464 -60.36454597 99.53950671 -60.41490483 106.34958208 C-60.51824241 120.35799096 -60.60601834 134.36644782 -60.6875 148.375 C-69.5975 148.375 -78.5075 148.375 -87.6875 148.375 C-87.6875 98.875 -87.6875 49.375 -87.6875 -1.625 C-81.0875 -1.625 -74.4875 -1.625 -67.6875 -1.625 C-63.13761974 4.44150701 -63.54151924 10.07596222 -63.6875 17.375 C-62.98367188 16.65441406 -62.27984375 15.93382813 -61.5546875 15.19140625 C-45.64769617 -0.69879374 -21.88527361 -13.53576586 0 0 Z " fill="#CCCCCC" transform="translate(2019.6875,2980.625)"/>
<path d="M0 0 C1.45986328 0.04640625 1.45986328 0.04640625 2.94921875 0.09375 C17.93775945 1.05919546 31.99885815 8.97121788 42 20 C52.34899761 34.09185389 57.02060392 49.18801587 57.3125 66.5 C57.33030518 67.18296143 57.34811035 67.86592285 57.36645508 68.56958008 C57.36200016 71.32306042 57.15130905 73.63400834 56.09526062 76.18841553 C52.58767682 79.22110954 48.58848285 78.52103457 44.11254883 78.45410156 C43.09773941 78.45468567 42.08292999 78.45526978 41.03736877 78.45587158 C37.67691052 78.45308077 34.3173349 78.42194078 30.95703125 78.390625 C28.62961817 78.38316618 26.30219882 78.37747156 23.97477722 78.37347412 C17.84419464 78.35818964 11.71399015 78.31888314 5.58355713 78.2746582 C-0.67015467 78.23376641 -6.92392747 78.21547611 -13.17773438 78.1953125 C-25.45198918 78.15239198 -37.72596317 78.0841063 -50 78 C-49.5311914 81.21671883 -49.05707722 84.43263438 -48.58203125 87.6484375 C-48.38389832 89.00859985 -48.38389832 89.00859985 -48.1817627 90.39624023 C-46.02794377 104.92045695 -41.46969286 116.26882358 -30 126 C-19.85895658 133.35722758 -6.15964542 134.2525971 6 133 C17.57503768 131.03177497 28.24421018 126.50385988 38 120 C41.1875 119.3125 41.1875 119.3125 45 120 C48.94531331 123.35666976 53.55276344 127.56435564 54 133 C52.38730234 134.9768552 50.94348079 136.39289089 49 138 C48.46375 138.4640625 47.9275 138.928125 47.375 139.40625 C31.941641 151.91259264 14.70599398 155.33256868 -4.625 155.5 C-5.92300537 155.51861084 -7.22101074 155.53722168 -8.55834961 155.55639648 C-27.56649947 155.43242767 -43.92973507 148.31691288 -57.3125 134.97265625 C-72.69086054 118.6005669 -77.79443358 95.4621046 -77.22265625 73.68359375 C-76.34185004 52.18572567 -70.6251403 33.46066514 -55 18 C-54.11441406 17.06414063 -54.11441406 17.06414063 -53.2109375 16.109375 C-38.80722343 2.02292335 -19.20988741 -0.75872179 0 0 Z " fill="#CCCCCC" transform="translate(2544,2976)"/>
<path d="M0 0 C0.96180176 -0.00547852 1.92360352 -0.01095703 2.91455078 -0.01660156 C16.8511324 0.12202333 29.8164415 3.76954392 40.25 13.4375 C50.41848164 24.55276764 54.81078429 37.94154901 54.65307617 52.72900391 C54.65373329 54.36979416 54.65373329 54.36979416 54.65440369 56.04373169 C54.65232926 59.62569615 54.62906156 63.20718075 54.60546875 66.7890625 C54.59986802 69.28583521 54.59560018 71.78261123 54.59260559 74.27938843 C54.58119448 80.82571643 54.55175934 87.37184226 54.51849365 93.91809082 C54.48607262 100.60811435 54.47408301 107.29820106 54.45898438 113.98828125 C54.42688614 127.09644003 54.37631812 140.20445922 54.3125 153.3125 C51.72853321 153.39362454 49.14712432 153.45304748 46.5625 153.5 C45.83289062 153.52513672 45.10328125 153.55027344 44.3515625 153.57617188 C41.07600189 153.62083861 38.75331919 153.5589564 35.86230469 151.94262695 C33.91713976 149.89664929 33.31278455 148.21352911 32.5625 145.5 C32.32015625 144.66855469 32.0778125 143.83710938 31.828125 142.98046875 C31.25917747 140.03659632 31.22516278 137.30379978 31.3125 134.3125 C30.31992188 135.09753906 29.32734375 135.88257812 28.3046875 136.69140625 C17.52133208 145.08454697 6.2758555 153.57028317 -7.6875 155.3125 C-8.46222656 155.42078125 -9.23695313 155.5290625 -10.03515625 155.640625 C-26.39932897 157.61158717 -39.37911428 155.64731292 -52.9375 146 C-56.2470471 142.76566988 -58.47206896 139.3500428 -60.6875 135.3125 C-61.04328125 134.69503906 -61.3990625 134.07757812 -61.765625 133.44140625 C-65.38049296 125.09351203 -65.18662155 112.35751422 -62.62890625 103.75 C-55.72355929 89.07847692 -42.92878536 82.0443885 -28.28125 76.453125 C-18.51966841 73.35488389 -8.74951031 71.58803658 1.39526367 70.37719727 C3.50898767 70.12392306 5.62062547 69.85671799 7.73242188 69.58789062 C14.62580655 68.73087851 21.36158805 68.08827703 28.3125 68.3125 C28.32514624 48.75475079 28.32514624 48.75475079 21.1875 30.9375 C13.03935268 23.49788723 5.3214771 22.49781282 -5.34375 22.9609375 C-17.06437798 23.76420468 -26.31250697 28.61328604 -35.875 35.1875 C-40.04855322 37.82162785 -42.80068342 38.11361747 -47.6875 37.3125 C-51.94980857 34.11576857 -54.50869258 30.10587632 -56.6875 25.3125 C-54.67837871 18.29472422 -44.01416488 12.92148603 -38 9.5 C-36.57026654 8.75572015 -35.13288454 8.02590998 -33.6875 7.3125 C-32.99527344 6.95542969 -32.30304687 6.59835938 -31.58984375 6.23046875 C-21.29636295 1.2425207 -11.29204342 0.04692235 0 0 Z " fill="#CCCCCC" transform="translate(2228.6875,2975.6875)"/>
<path d="M0 0 C11.54399361 8.30678905 16.22388638 21.10867049 18.48779297 34.67382812 C21.33564563 54.28369942 19.88095508 76.54251012 8.1875 93.1875 C2.88335697 99.52941014 -4.63061471 104.80551255 -12.91015625 106.16796875 C-28.25974163 107.31217132 -41.1375511 107.31988375 -53.6875 97.375 C-66.40510935 84.68129594 -68.95433046 67.53749473 -69.0625 50.375 C-69.01014703 41.02237362 -68.563759 32.33707739 -65.6875 23.375 C-65.39746094 22.45976562 -65.10742188 21.54453125 -64.80859375 20.6015625 C-61.00220949 9.99465071 -54.15293025 2.2625282 -44.14453125 -2.94921875 C-30.44828254 -8.45476301 -12.63942795 -7.58365677 0 0 Z " fill="#FEFEFE" transform="translate(1703.6875,3003.625)"/>
<path d="M0 0 C8.58 0 17.16 0 26 0 C26 49.5 26 99 26 150 C17.42 150 8.84 150 0 150 C0 100.5 0 51 0 0 Z " fill="#CCCCCC" transform="translate(1862,2979)"/>
<path d="M0 0 C1.26304459 0.08052361 1.26304459 0.08052361 2.55160522 0.16267395 C3.92332382 0.25943672 3.92332382 0.25943672 5.32275391 0.3581543 C6.7407579 0.4530439 6.7407579 0.4530439 8.18740845 0.54985046 C10.19674462 0.68587613 12.20588761 0.82478089 14.21484375 0.96630859 C17.25160469 1.17903089 20.28898781 1.37962928 23.32666016 1.57885742 C54.58097528 3.69163539 54.58097528 3.69163539 63.98681641 11.36987305 C66.75116455 15.16483182 66.6144923 19.35902766 66.40087891 23.90112305 C65.3942024 30.1722226 62.13672364 34.11253963 57.36181641 38.11987305 C42.52152794 48.30872782 21.88262623 48.07820302 4.75634766 45.6315918 C-4.69544175 43.75279574 -13.29658046 40.67035541 -19.38818359 32.93237305 C-22.17715199 27.60693544 -22.0044238 21.67989899 -21.07568359 15.86987305 C-17.85740061 8.49818336 -8.34898846 -0.55751831 0 0 Z " fill="#FEFEFE" transform="translate(2357.07568359375,3117.130126953125)"/>
<path d="M0 0 C0.79921875 -0.01611328 1.5984375 -0.03222656 2.421875 -0.04882812 C11.80139227 -0.05641673 18.89884253 2.47916741 25.671875 9.0390625 C32.43449173 16.91074837 32.58799441 26.4840633 31.85693359 36.40527344 C31.35113026 40.56457412 29.91954345 43.85175294 27.625 47.3125 C26.92375 48.385 26.2225 49.4575 25.5 50.5625 C16.9235707 58.76604107 6.96161437 59.72668324 -4.36328125 59.51171875 C-13.57680964 59.15693878 -19.58989779 56.37448659 -26.234375 49.88671875 C-32.28229449 42.61376448 -32.81559389 34.75258442 -32.7109375 25.57421875 C-31.95650785 18.24923321 -28.95302797 11.36020112 -23.29296875 6.5390625 C-15.86601412 1.35158141 -8.91678696 -0.03561017 0 0 Z " fill="#FEFEFE" transform="translate(2376.375,2995.6875)"/>
<path d="M0 0 C0.97525635 0.00281982 1.9505127 0.00563965 2.95532227 0.00854492 C4.05831665 0.01398315 4.05831665 0.01398315 5.18359375 0.01953125 C5.38289632 4.28767247 5.52721056 8.55328263 5.62304688 12.82470703 C5.66302959 14.27408058 5.71744088 15.72313653 5.78710938 17.17138672 C6.34703184 29.11914403 6.34703184 29.11914403 3.56054688 33.6706543 C1.54955437 35.72659448 -0.45504915 37.38419845 -2.81640625 39.01953125 C-3.77546875 39.74785156 -4.73453125 40.47617188 -5.72265625 41.2265625 C-15.653621 47.37359038 -23.99897149 50.20206245 -35.62890625 50.26953125 C-36.50611328 50.29015625 -37.38332031 50.31078125 -38.28710938 50.33203125 C-44.75633039 50.37074013 -49.42657685 49.53611859 -54.7421875 45.58984375 C-55.42861328 44.87441406 -55.42861328 44.87441406 -56.12890625 44.14453125 C-56.59941406 43.67273437 -57.06992188 43.2009375 -57.5546875 42.71484375 C-61.92820108 36.83835801 -61.35497282 30.00323871 -60.81640625 23.01953125 C-59.06584321 17.11138099 -54.84059341 13.36898936 -49.81640625 10.01953125 C-39.28458482 4.5623647 -28.48911251 2.45187018 -16.81640625 1.01953125 C-15.76066406 0.88804687 -14.70492187 0.7565625 -13.6171875 0.62109375 C-9.06830066 0.14089742 -4.5734868 -0.01723243 0 0 Z " fill="#FEFEFE" transform="translate(2251.81640625,3061.98046875)"/>
<path d="M0 0 C7.67832814 6.51818313 12.81299592 14.57414432 13.96484375 24.66796875 C13.96484375 27.63796875 13.96484375 30.60796875 13.96484375 33.66796875 C-12.76515625 33.66796875 -39.49515625 33.66796875 -67.03515625 33.66796875 C-64.56767957 20.09684702 -61.16395218 8.53816613 -49.8984375 -0.20703125 C-34.70446767 -9.38074889 -14.76256518 -10.81164358 0 0 Z " fill="#FEFEFE" transform="translate(2562.03515625,3003.33203125)"/>
<path d="M0 0 C4.50242439 3.11979013 8.04733806 6.57951418 9.8125 11.875 C10.58213307 17.81773637 10.47681266 22.63758502 7.25 27.8125 C3.37718569 32.81488515 0.01405776 35.41237081 -6.2421875 36.31640625 C-11.75559488 36.61563275 -16.12728684 36.5414738 -20.75 33.3125 C-24.85527789 29.58910842 -27.74335055 26.04020294 -28.52734375 20.453125 C-28.7870271 13.59748458 -27.32926762 8.56750787 -23 3.125 C-16.21914939 -2.29968048 -7.79637263 -4.53447564 0 0 Z " fill="#CCCCCC" transform="translate(1884.1875,2914.125)"/>
</svg>
